<?xml version="1.0" encoding="UTF-8" standalone="no"?>
<!-- Created with Inkscape (http://www.inkscape.org/) -->

<svg
   version="1.1"
   id="svg2"
   width="322"
   height="319"
   viewBox="0 0 322 319"
   sodipodi:docname="logo_ogre.svg"
   inkscape:version="1.2.2 (b0a8486541, 2022-12-01)"
   xmlns:inkscape="http://www.inkscape.org/namespaces/inkscape"
   xmlns:sodipodi="http://sodipodi.sourceforge.net/DTD/sodipodi-0.dtd"
   xmlns="http://www.w3.org/2000/svg"
   xmlns:svg="http://www.w3.org/2000/svg">
  <defs
     id="defs6" />
  <sodipodi:namedview
     id="namedview4"
     pagecolor="#ffffff"
     bordercolor="#000000"
     borderopacity="0.25"
     inkscape:showpageshadow="2"
     inkscape:pageopacity="0.0"
     inkscape:pagecheckerboard="0"
     inkscape:deskcolor="#d1d1d1"
     showgrid="false"
     inkscape:zoom="1.1382424"
     inkscape:cx="-39.97391"
     inkscape:cy="130.4643"
     inkscape:window-width="1862"
     inkscape:window-height="1011"
     inkscape:window-x="0"
     inkscape:window-y="0"
     inkscape:window-maximized="1"
     inkscape:current-layer="g8" />
  <g
     inkscape:groupmode="layer"
     inkscape:label="Image"
     id="g8">
    <path
       style="fill:#800000;fill-opacity:1"
       d="M 80.935761,239.37137 C 37.639271,196.02558 2.2148714,160.13702 2.2148714,159.619 2.2148714,158.32531 159.46286,1.1818868 160.75741,1.1818868 c 0.5708,0 36.54039,35.5757742 79.93242,79.0572762 l 78.89461,79.057277 -23.12603,23.19273 c -12.71931,12.75599 -48.23997,48.50715 -78.93478,79.44701 -30.69482,30.93985 -56.27186,56.25235 -56.83787,56.25 -0.56601,-0.002 -36.45351,-35.46902 -79.749999,-78.81481 z m 88.707629,-7.59517 c 3.70578,-1.54837 12.1472,-11.85376 11.099,-13.54979 -1.26529,-2.04728 -3.23486,-0.97994 -6.44801,3.4943 -2.47505,3.44643 -3.71552,4.39409 -5.15412,3.9375 -2.4658,-0.78262 -14.40156,-0.77735 -16.87423,0.007 -1.46358,0.46453 -2.70383,-0.46324 -5.2346,-3.91575 -3.13529,-4.27721 -5.69499,-5.43723 -6.52125,-2.95533 -0.60331,1.81219 7.62414,11.44614 11.04667,12.93513 4.13253,1.79787 13.83521,1.82282 18.08654,0.0465 z m 0.33514,-13.38529 c 0.29643,-0.88929 -2.13134,-1.20902 -9.18033,-1.20902 -8.42641,0 -10.7223,0.52769 -9.14751,2.10249 0.2397,0.2397 4.37085,0.40876 9.18033,0.37569 5.90228,-0.0406 8.87549,-0.45311 9.14751,-1.26916 z m -31.45241,-5.77234 c 5.98932,-4.70187 7.105,-7.65843 3.10673,-8.23288 -1.54197,-0.22154 -2.92196,1.0387 -5.47512,5 -1.87744,2.91291 -3.77998,5.8587 -4.22788,6.5462 -1.57505,2.41763 0.84368,1.20269 6.59627,-3.31332 z m 48.20533,-0.54889 c -1.93412,-2.81172 -3.51658,-5.48139 -3.51658,-5.93261 0,-1.66675 -4.21811,-2.16565 -5.70856,-0.67519 -1.31407,1.31407 -0.77575,2.07626 4.66342,6.60278 3.38193,2.81448 6.58307,5.11723 7.11364,5.11723 0.53057,0 -0.6178,-2.3005 -2.55192,-5.11221 z m -14.51658,-1.7328 c 0,-0.46476 -0.8571,-1.62068 -1.90466,-2.56871 -1.66919,-1.51059 -2.41893,-1.56961 -6.06443,-0.4774 -3.33587,0.99946 -4.85434,0.99514 -7.6666,-0.0218 -3.06215,-1.10728 -3.75141,-1.04675 -5.43557,0.4774 -1.06081,0.96002 -1.92874,2.12574 -1.92874,2.5905 0,0.46475 5.175,0.84501 11.5,0.84501 6.325,0 11.5,-0.38026 11.5,-0.84501 z m -39,-6.59156 c 0,-0.7252 -0.675,-1.87874 -1.5,-2.56343 -1.26408,-1.04909 -1.5,-0.85864 -1.5,1.21089 0,1.35068 0.28777,2.74354 0.63948,3.09526 0.90297,0.90297 2.36052,-0.17311 2.36052,-1.74272 z m 58,-1.33673 c 0,-2.45884 -0.12109,-2.53419 -1.63674,-1.01853 -0.9243,0.9243 -1.36266,2.35101 -1.00707,3.27767 0.90402,2.35584 2.64381,0.86918 2.64381,-2.25914 z m -22.84461,-3.83518 c 2.38953,-1.98466 4.55658,-3.80913 4.81565,-4.05437 1.0003,-0.94691 -2.6445,-2.30723 -6.22104,-2.32184 l -3.75,-0.0153 v -9.3 c 0,-9.34078 -0.89459,-12.06142 -3.62186,-11.01487 -1.04163,0.39972 -1.37814,2.93109 -1.37814,10.36707 v 9.83822 l -4.67183,0.30479 c -2.56951,0.16763 -4.83335,0.79631 -5.03076,1.39705 -0.1974,0.60075 1.75377,2.73825 4.33594,4.75 6.21786,4.84429 9.73537,4.85546 15.52204,0.0493 z m -25.71097,-2.83608 c -0.53566,-2.85532 -0.20906,-3.88171 1.90923,-6 1.40549,-1.40549 3.65275,-2.55544 4.99391,-2.55544 2.5245,0 4.36702,-2.68542 2.86979,-4.18265 -0.46652,-0.46652 -2.35913,-0.0945 -4.2058,0.82678 -2.98529,1.48925 -3.80605,1.51868 -7.40197,0.26543 -4.39686,-1.53241 -8.60958,-6.63855 -8.60958,-10.43547 0,-1.22658 -0.9611,-2.8683 -2.13579,-3.64826 -1.84635,-1.22593 -1.96386,-1.69341 -0.86709,-3.44961 1.26745,-2.02951 1.27519,-2.02911 7.88579,0.4063 3.6394,1.3408 9.03038,2.48698 11.97996,2.54708 5.51722,0.11242 7.29456,-1.0262 10.69173,-6.84942 0.94696,-1.62323 1.27613,-1.43224 3.22534,1.87143 3.70431,6.27833 7.90814,6.76841 21.13397,2.46378 6.15871,-2.00448 6.4664,-2.01577 7.73294,-0.28367 1.13171,1.54771 1.03743,2.00112 -0.66391,3.19278 -1.09062,0.7639 -1.98294,2.38393 -1.98294,3.60007 0,3.87271 -4.64563,9.48898 -8.90451,10.76497 -3.22878,0.96736 -4.43138,0.88938 -7.14262,-0.46316 -4.32205,-2.15613 -5.15371,-2.0539 -4.77242,0.58659 0.23446,1.62368 1.24516,2.40122 3.79549,2.91991 5.20721,1.05905 9.2519,7.3722 6.00775,9.3772 -2.5594,1.5818 0.53204,2.0742 6.68554,1.06487 l 6.74787,-1.10682 0.81781,-3.93616 c 0.4498,-2.16489 1.89805,-6.93082 3.21833,-10.59095 3.83163,-10.62217 5.59516,-27.96261 3.89208,-38.27008 -0.54931,-3.32456 -0.91018,-3.743 -2.73899,-3.17588 -1.15848,0.35925 -4.21505,0.89931 -6.79238,1.20014 -5.46299,0.63766 -10.69006,-1.93312 -12.64224,-6.21769 -1.6607,-3.64484 -1.45155,-9.63297 0.43029,-12.31967 0.8811,-1.25795 1.33541,-2.55376 1.00959,-2.87959 -2.72386,-2.72385 -33.47531,-2.74786 -36.19491,-0.0283 -0.31029,0.31028 0.19346,2.0292 1.11942,3.81983 2.60742,5.04218 1.43828,10.64912 -3.08484,14.79425 -3.41496,3.12958 -4.0321,3.32806 -8.8117,2.83392 -2.82676,-0.29224 -6.11795,-0.83741 -7.31377,-1.21148 -1.96787,-0.61559 -2.24232,-0.22592 -2.89195,4.10611 -1.12095,7.47506 0.28052,25.10278 2.61627,32.90738 1.15222,3.85 2.89487,9.7 3.87255,13 l 1.7776,6 6.39987,1.12791 c 3.51993,0.62036 6.53276,1.18286 6.69518,1.25 0.16243,0.0671 0.005,-1.42796 -0.35089,-3.32247 z m -14.19442,-43.22477 c -2.35929,-0.49259 -2.64362,-1.14134 -1.64301,-3.74888 0.44495,-1.15952 1.98411,-1.58179 5.7656,-1.58179 3.06997,0 6.5694,-0.74262 8.64301,-1.83415 4.33504,-2.28191 9.79788,-10.14726 10.62043,-15.29118 0.60374,-3.77557 1.60487,-4.48693 4.66305,-3.3134 1.08617,0.41681 1.27702,1.38206 0.74147,3.75 -2.01283,8.89963 -7.74487,16.91208 -14.30409,19.99476 -3.61903,1.70085 -11.05778,2.7405 -14.48646,2.02464 z m 52.97179,-0.74856 c -2.35302,-0.76327 -5.81342,-2.55873 -7.68978,-3.9899 -3.70377,-2.825 -9.27743,-13.17157 -9.74621,-18.09221 -0.24322,-2.55307 0.0597,-3 2.03323,-3 1.91082,0 2.63797,0.94209 4.13083,5.3519 3.5187,10.39395 8.16127,14.36936 17.47328,14.96231 5.47716,0.34876 6.48074,0.71022 6.94957,2.50304 0.30138,1.15247 0.41775,2.22562 0.2586,2.38478 -1.10424,1.10423 -9.87756,1.02577 -13.40952,-0.11992 z m -60.22179,39.43748 c 1.31105,-0.83014 1.22292,-1.74147 -0.69965,-7.23469 -2.77691,-7.93428 -4.30035,-16.472 -4.30035,-24.10014 0,-5.7227 -0.17169,-6.11961 -4.53421,-10.48213 -5.65589,-5.65588 -6.86828,-4.86461 -6.29685,4.10963 0.33247,5.22136 1.09989,7.59949 3.97839,12.3285 1.96155,3.22258 4.09881,8.10924 4.74947,10.85924 2.19862,9.29246 4.1554,15.50008 4.88113,15.48469 0.39714,-0.008 1.39707,-0.44272 2.22207,-0.9651 z m 85.02407,-11.11699 c 1.2207,-4.9403 3.36883,-10.65192 4.77361,-12.69248 1.40478,-2.04057 3.13024,-5.28512 3.83434,-7.21012 1.52081,-4.15784 1.77773,-13.62873 0.39293,-14.48458 -0.53627,-0.33144 -2.94493,1.21316 -5.35256,3.43245 l -4.37752,4.03505 -0.57285,9.60174 c -0.37119,6.22158 -1.54318,12.76494 -3.32918,18.58719 -2.3331,7.60574 -2.53649,9.12407 -1.32459,9.88815 2.16487,1.3649 3.46218,-1.06542 5.95582,-11.1574 z m -61.52407,-3.48593 c 0,-1.22631 -0.81042,-2.03177 -2.25,-2.23622 -2.4793,-0.35212 -3.04417,1.62538 -1.0375,3.63205 1.64219,1.64219 3.2875,0.94361 3.2875,-1.39583 z m 35.3,1.38333 c 1.82165,-1.82165 1.43588,-3.8 -0.74098,-3.8 -2.30122,0 -3.45442,1.52721 -2.67902,3.54789 0.67773,1.76612 1.82167,1.85044 3.42,0.25211 z m -42.25455,-43.25455 c 2.87654,-2.87653 3.17398,-6.59196 0.70455,-8.80081 -0.9625,-0.86094 -4.45,-2.33899 -7.75,-3.28457 -14.73562,-4.22231 -27.62111,-13.78525 -38.685649,-28.710497 -5.64929,-7.620473 -6.91098,-7.567285 -4.33681,0.182825 3.66877,11.045632 13.799419,23.075522 28.872619,34.285502 12.61828,9.38425 16.86947,10.65338 21.19529,6.32755 z m 62.81342,-3.26346 c 10.57032,-7.24352 23.02194,-19.50989 28.05082,-27.63348 3.98669,-6.440056 7.3802,-15.191952 6.30682,-16.265337 -0.22822,-0.228217 -2.92937,2.854706 -6.00255,6.850942 -11.68041,15.188695 -21.73986,22.791605 -36.19938,27.359395 -4.39197,1.38744 -8.77947,3.24123 -9.75,4.11954 -2.5148,2.27586 -2.18183,5.96061 0.80889,8.95133 3.56584,3.56584 7.92899,2.68664 16.7854,-3.38239 z"
       id="path170" />
  </g>
</svg>
